<?xml version="1.0" encoding="utf-8"?>
<!-- Generator: Adobe Illustrator 15.0.2, SVG Export Plug-In . SVG Version: 6.00 Build 0)  -->
<!DOCTYPE svg PUBLIC "-//W3C//DTD SVG 1.1//EN" "http://www.w3.org/Graphics/SVG/1.1/DTD/svg11.dtd">
<svg version="1.1" id="Layer_1" xmlns="http://www.w3.org/2000/svg" xmlns:xlink="http://www.w3.org/1999/xlink" x="0px" y="0px"
	 width="512px" height="512px" viewBox="0 0 512 512" enable-background="new 0 0 512 512" xml:space="preserve">
<path d="M451.048,243.81h-36.571v-97.523c0-26.94-21.822-48.763-48.763-48.763H268.19V60.952C268.19,27.31,240.881,0,207.238,0
	s-60.952,27.31-60.952,60.952v36.571H48.762c-26.94,0-48.518,21.822-48.518,48.763l-0.125,92.648h36.452
	c36.327,0,65.827,29.5,65.827,65.827c0,36.334-29.5,65.834-65.827,65.834H0.119L0,463.238C0,490.179,21.821,512,48.762,512h92.649
	v-36.571c0-36.333,29.5-65.833,65.827-65.833s65.833,29.5,65.833,65.833V512h92.643c26.94,0,48.763-21.821,48.763-48.762v-97.524
	h36.571c33.643,0,60.952-27.31,60.952-60.952S484.69,243.81,451.048,243.81z"/>
</svg>
